<?xml version="1.0" standalone="no"?>
<!DOCTYPE svg PUBLIC "-//W3C//DTD SVG 20010904//EN"
 "http://www.w3.org/TR/2001/REC-SVG-20010904/DTD/svg10.dtd">
<svg version="1.0" xmlns="http://www.w3.org/2000/svg"
 width="231.000000pt" height="231.000000pt" viewBox="0 0 231.000000 231.000000"
 preserveAspectRatio="xMidYMid meet">
<metadata>
Created by potrace 1.14, written by Peter Selinger 2001-2017
</metadata>
<g transform="translate(0.000000,231.000000) scale(0.100000,-0.100000)"
fill="#000000" stroke="none">
<path d="M1259 1836 c-30 -15 -48 -52 -56 -113 -3 -27 -11 -61 -18 -78 -8 -16
-13 -41 -13 -55 0 -14 -2 -46 -6 -71 -5 -37 -3 -48 9 -53 11 -4 23 6 37 31 20
32 23 34 31 17 8 -18 157 -147 193 -167 12 -7 20 -6 28 5 8 12 31 15 88 15
134 -1 224 64 233 170 6 57 -17 99 -67 123 -42 19 -45 19 -88 2 -86 -33 -124
-62 -159 -120 -19 -31 -35 -67 -35 -79 0 -13 -3 -23 -6 -23 -12 0 -137 139
-142 158 -4 16 2 22 33 32 54 18 102 71 101 110 -1 37 -14 56 -56 77 -50 26
-82 32 -107 19z m45 -103 c-19 -14 -38 -17 -31 -5 2 4 7 15 11 26 5 15 9 16
22 5 14 -12 14 -14 -2 -26z m384 -192 c2 -12 -3 -33 -12 -46 -17 -26 -92 -58
-126 -53 -22 3 -21 4 12 53 23 34 44 54 68 62 44 15 54 12 58 -16z"/>
<path d="M831 1801 c-16 -10 -27 -61 -13 -61 12 0 36 -143 37 -225 2 -94 2
-95 24 -95 29 0 145 57 170 84 28 29 39 70 35 126 -4 57 -26 85 -104 138 -64
42 -116 54 -149 33z m125 -97 c46 -22 80 -91 63 -128 -14 -29 -54 -44 -78 -29
-16 10 -24 39 -35 126 -6 53 -2 55 50 31z"/>
<path d="M554 1623 c-12 -29 -12 -39 7 -88 11 -30 18 -64 14 -74 -3 -11 -1
-22 4 -25 5 -4 17 -28 27 -54 21 -56 61 -112 80 -112 32 0 36 45 8 99 -11 21
-11 29 0 45 19 29 31 29 46 0 8 -14 27 -32 42 -40 27 -14 28 -14 28 10 0 38
-47 137 -83 174 -18 19 -51 45 -74 59 -24 14 -43 29 -43 33 0 5 -10 8 -21 7
-14 -1 -27 -13 -35 -34z m115 -133 c-16 -11 -29 -4 -29 16 0 12 4 13 21 3 17
-9 19 -13 8 -19z"/>
<path d="M1924 1361 c-12 -9 -62 -28 -110 -40 -81 -21 -154 -56 -154 -73 0
-20 79 -20 153 -1 90 24 99 15 37 -37 -44 -37 -50 -50 -21 -50 30 0 89 -28 71
-33 -8 -3 -40 -13 -70 -23 -82 -25 -115 -43 -101 -57 18 -18 140 -11 201 11
30 11 71 23 90 27 125 23 110 65 -37 104 l-42 12 16 37 c10 20 25 46 35 58 22
25 22 33 -1 62 -23 26 -39 27 -67 3z"/>
<path d="M1058 1284 c-83 -20 -135 -49 -198 -113 -190 -191 -156 -499 72 -644
235 -150 541 -32 623 239 21 69 13 205 -15 269 -84 193 -286 297 -482 249z"/>
<path d="M255 1240 c-21 -24 -15 -43 22 -67 15 -10 33 -22 39 -28 6 -5 26 -21
44 -35 18 -14 54 -46 80 -72 39 -40 54 -48 84 -48 31 0 36 3 34 23 -1 12 14
47 32 77 62 104 81 170 48 170 -20 0 -68 -31 -68 -45 0 -18 -59 -115 -70 -115
-4 0 -26 15 -48 33 -111 90 -161 127 -169 127 -6 0 -18 -9 -28 -20z"/>
</g>
</svg>
